<?xml version="1.0" encoding="iso-8859-1"?>
<!-- Uploaded to: SVG Repo, www.svgrepo.com, Generator: SVG Repo Mixer Tools -->
<!DOCTYPE svg PUBLIC "-//W3C//DTD SVG 1.1//EN" "http://www.w3.org/Graphics/SVG/1.1/DTD/svg11.dtd">
<svg fill="#000000" version="1.1" id="Capa_1" xmlns="http://www.w3.org/2000/svg" xmlns:xlink="http://www.w3.org/1999/xlink" 
	 width="800px" height="800px" viewBox="0 0 278.749 278.749"
	 xml:space="preserve">
<g>
	<g>
		<path d="M0,53.308c0-15.834,12.883-28.712,28.709-28.712h221.325c15.835,0,28.709,12.877,28.709,28.712v7.641
			c-0.433-0.429-0.913-0.816-1.381-1.228c-0.463-0.42-0.913-0.855-1.405-1.255c-0.517-0.423-1.075-0.805-1.615-1.204
			c-0.511-0.385-1.009-0.775-1.531-1.132c-0.564-0.375-1.153-0.703-1.729-1.054c-0.547-0.331-1.081-0.675-1.646-0.982
			c-0.588-0.327-1.225-0.598-1.837-0.892c-0.577-0.271-1.142-0.573-1.729-0.819c-0.655-0.276-1.333-0.496-2.012-0.742
			c-0.57-0.204-1.135-0.444-1.724-0.621c-0.75-0.234-1.531-0.399-2.3-0.592c-0.534-0.129-1.057-0.3-1.604-0.405
			c-0.853-0.171-1.735-0.282-2.605-0.399c-0.48-0.069-0.955-0.165-1.436-0.216c-1.369-0.135-2.756-0.21-4.161-0.21h-38.911
			c-18.398,0-34.155,12.015-39.253,29.228H28.709c-1.408,0-2.792,0.072-4.155,0.207c-0.499,0.051-0.979,0.156-1.465,0.222
			c-0.868,0.117-1.732,0.222-2.582,0.394c-0.546,0.111-1.081,0.276-1.624,0.411c-0.763,0.192-1.537,0.357-2.279,0.592
			c-0.585,0.177-1.15,0.411-1.724,0.627c-0.675,0.24-1.357,0.463-2.018,0.739c-0.588,0.247-1.15,0.546-1.72,0.817
			c-0.616,0.294-1.249,0.564-1.844,0.892c-0.573,0.306-1.12,0.669-1.672,1.009c-0.568,0.339-1.144,0.664-1.688,1.027
			c-0.541,0.363-1.051,0.769-1.579,1.162c-0.529,0.394-1.063,0.763-1.567,1.174c-0.499,0.405-0.955,0.855-1.432,1.279
			c-0.451,0.399-0.919,0.781-1.354,1.204V53.308H0z"/>
		<path d="M278.749,225.444c0,15.835-12.88,28.709-28.709,28.709H28.709C12.877,254.153,0,241.273,0,225.444V119.426
			C0,105.58,9.863,93.981,22.929,91.3c1.871-0.382,3.801-0.583,5.78-0.583h148.054c3.009,0,5.578-2.183,6.071-5.161
			c2.27-13.943,14.171-24.067,28.294-24.067h38.911c15.829,0,28.709,12.883,28.709,28.712V225.444z"/>
	</g>
</g>
</svg>